<?xml version="1.0" encoding="utf-8"?>
<!-- Generator: Adobe Illustrator 21.1.0, SVG Export Plug-In . SVG Version: 6.00 Build 0)  -->
<svg xmlns="http://www.w3.org/2000/svg" xmlns:xlink="http://www.w3.org/1999/xlink" version="1.1" id="Layer_1" x="0px" y="0px" viewBox="0 0 128 128" style="enable-background:new 0 0 128 128;" xml:space="preserve" width="64px" height="64px">

<g>
	<path d="M84.9,48.1H70.7v-9.3c0-3.5,2.3-4.3,4-4.3c1.6,0,10.1,0,10.1,0V19.1L70.8,19C55.5,19,52,30.5,52,37.9v10.3   h-8.9V64H52c0,20.4,0,45,0,45h18.7c0,0,0-24.8,0-45h12.6L84.9,48.1z" style="fill:#659EC9;"/>
</g>
<g>
	<g>
		<path d="M70.8,29l13.8,0.1v-10L70.8,19C55.5,19,52,30.5,52,37.9v10C52,40.5,55.5,29,70.8,29z" style="fill:#FFFFFF;"/>
	</g>
</g>
<g>
	<path d="M70.7,112H52c-1.7,0-3-1.3-3-3V67h-5.9c-1.7,0-3-1.3-3-3s1.3-3,3-3H52c1.7,0,3,1.3,3,3v42h12.7V64   c0-1.7,1.3-3,3-3h9.9l1-9.9H70.7c-1.7,0-3-1.3-3-3v-9.3c0-5.1,3.5-7.3,7-7.3h7.1V22l-10.9,0C66.1,22,55,23.5,55,37.9v10.3   c0,1.7-1.3,3-3,3h-8.9c-1.7,0-3-1.3-3-3s1.3-3,3-3H49v-7.3C49,27.8,54.7,16,70.8,16l13.9,0.1c1.7,0,3,1.3,3,3v15.4c0,1.7-1.3,3-3,3   H74.6c-0.6,0-1,0-1,1.3v6.3h11.2c0.8,0,1.7,0.4,2.2,1c0.6,0.6,0.8,1.5,0.8,2.3l-1.6,15.9c-0.2,1.5-1.4,2.7-3,2.7h-9.6v42   C73.7,110.7,72.3,112,70.7,112z" style="fill:#444B54;"/>
</g>
<g>
	<path d="M84.7,112H42c-1.7,0-3-1.3-3-3s1.3-3,3-3h42.7c1.7,0,3,1.3,3,3S86.3,112,84.7,112z" style="fill:#444B54;"/>
</g>
<g>
	<path d="M100.7,112c-0.8,0-1.6-0.3-2.1-0.9c-0.6-0.6-0.9-1.3-0.9-2.1c0-0.2,0-0.4,0.1-0.6c0-0.2,0.1-0.4,0.2-0.6   c0.1-0.2,0.2-0.3,0.3-0.5c0.1-0.2,0.2-0.3,0.4-0.5c1.1-1.1,3.1-1.1,4.2,0c0.6,0.6,0.9,1.3,0.9,2.1s-0.3,1.6-0.9,2.1   C102.2,111.7,101.5,112,100.7,112z" style="fill:#444B54;"/>
</g>
</svg>
