<?xml version="1.0" encoding="utf-8"?>
<!-- Generator: Adobe Illustrator 21.1.0, SVG Export Plug-In . SVG Version: 6.00 Build 0)  -->
<svg xmlns="http://www.w3.org/2000/svg" xmlns:xlink="http://www.w3.org/1999/xlink" version="1.1" id="Layer_1" x="0px" y="0px" viewBox="0 0 128 128" style="enable-background:new 0 0 128 128;" xml:space="preserve" width="64px" height="64px">

<path d="M86.2,104H41.8C32,104,24,96,24,86.2V41.8C24,32,32,24,41.8,24h44.4C96,24,104,32,104,41.8v44.4  C104,96,96,104,86.2,104z" style="fill:#FF697B;"/>
<path d="M86.2,104H41.8C32,104,24,96,24,86.2V41.8C24,32,32,24,41.8,24h44.4C96,24,104,32,104,41.8v44.4  C104,96,96,104,86.2,104z" style="fill:#FF697B;"/>
<path d="M24,41.8v14.7c14.5-11.1,41.2-24.9,79.5-19C101.5,29.7,94.6,24,86.2,24H41.8C32,24,24,32,24,41.8z" style="fill:#FFFFFF;"/>
<g>
	<polygon points="53.5,49 53.5,79 79.5,64  " style="fill:#FFFFFF;"/>
</g>
<path d="M86.2,104H41.8C32,104,24,96,24,86.2V41.8C24,32,32,24,41.8,24h44.4C96,24,104,32,104,41.8v44.4  C104,96,96,104,86.2,104z" style="fill:none;stroke:#444B54;stroke-width:6;stroke-linecap:round;stroke-linejoin:round;stroke-miterlimit:10;"/>
</svg>
